<?xml version="1.0" encoding="utf-8" standalone="no"?>
<!DOCTYPE svg PUBLIC "-//W3C//DTD SVG 1.1//EN"
  "http://www.w3.org/Graphics/SVG/1.1/DTD/svg11.dtd">
<svg xmlns:xlink="http://www.w3.org/1999/xlink" width="460.8pt" height="345.6pt" viewBox="0 0 460.8 345.6" xmlns="http://www.w3.org/2000/svg" version="1.1">
 <metadata>
  <rdf:RDF xmlns:dc="http://purl.org/dc/elements/1.1/" xmlns:cc="http://creativecommons.org/ns#" xmlns:rdf="http://www.w3.org/1999/02/22-rdf-syntax-ns#">
   <cc:Work>
    <dc:type rdf:resource="http://purl.org/dc/dcmitype/StillImage"/>
    <dc:date>2024-10-15T09:47:43.748531</dc:date>
    <dc:format>image/svg+xml</dc:format>
    <dc:creator>
     <cc:Agent>
      <dc:title>Matplotlib v3.9.2, https://matplotlib.org/</dc:title>
     </cc:Agent>
    </dc:creator>
   </cc:Work>
  </rdf:RDF>
 </metadata>
 <defs>
  <style type="text/css">*{stroke-linejoin: round; stroke-linecap: butt}</style>
 </defs>
 <g id="figure_1">
  <g id="patch_1">
   <path d="M 0 345.6 
L 460.8 345.6 
L 460.8 0 
L 0 0 
z
" style="fill: #ffffff"/>
  </g>
  <g id="axes_1">
   <g id="patch_2">
    <path d="M 57.6 307.584 
L 414.72 307.584 
L 414.72 41.472 
L 57.6 41.472 
z
" style="fill: #ffffff"/>
   </g>
   <g id="line2d_1">
    <path d="M 342.738512 255.58367 
L 283.710413 268.053773 
M 116.464132 93.47233 
L 73.832727 98.460371 
M 231.240992 160.810887 
L 208.28562 158.316866 
M 250.917025 150.834804 
L 231.240992 160.810887 
M 372.252562 295.488 
L 342.738512 255.58367 
M 201.726942 290.499959 
L 283.710413 268.053773 
M 201.726942 290.499959 
L 372.252562 295.488 
M 342.738512 233.137485 
L 283.710413 268.053773 
M 342.738512 233.137485 
L 342.738512 255.58367 
M 237.799669 118.412536 
L 231.240992 160.810887 
M 237.799669 118.412536 
L 250.917025 150.834804 
M 398.487273 223.161402 
L 342.738512 255.58367 
M 398.487273 223.161402 
L 372.252562 295.488 
M 168.933554 143.352742 
L 208.28562 158.316866 
M 168.933554 143.352742 
L 116.464132 93.47233 
M 346.017851 105.942433 
L 336.179835 118.412536 
M 221.402975 115.918515 
L 208.28562 158.316866 
M 221.402975 115.918515 
L 231.240992 160.810887 
M 221.402975 115.918515 
L 237.799669 118.412536 
M 221.402975 115.918515 
L 168.933554 143.352742 
M 395.207934 145.846763 
L 372.252562 138.364701 
M 395.207934 145.846763 
L 398.487273 223.161402 
M 267.313719 133.37666 
L 250.917025 150.834804 
M 267.313719 133.37666 
L 237.799669 118.412536 
M 267.313719 133.37666 
L 336.179835 118.412536 
M 126.302149 188.245113 
L 208.28562 158.316866 
M 126.302149 188.245113 
L 168.933554 143.352742 
M 100.067438 95.966351 
L 73.832727 98.460371 
M 100.067438 95.966351 
L 116.464132 93.47233 
M 100.067438 95.966351 
L 168.933554 143.352742 
M 201.726942 245.607588 
L 283.710413 268.053773 
M 188.609587 263.065732 
L 201.726942 245.607588 
M 267.313719 213.18532 
L 283.710413 268.053773 
M 267.313719 213.18532 
L 342.738512 233.137485 
M 267.313719 213.18532 
L 201.726942 245.607588 
M 234.520331 53.568 
L 73.832727 98.460371 
M 234.520331 53.568 
L 116.464132 93.47233 
M 142.698843 290.499959 
L 372.252562 295.488 
M 142.698843 290.499959 
L 201.726942 290.499959 
M 142.698843 290.499959 
L 188.609587 263.065732 
M 385.369917 178.269031 
L 398.487273 223.161402 
M 385.369917 178.269031 
L 395.207934 145.846763 
M 250.917025 85.990268 
L 237.799669 118.412536 
M 250.917025 85.990268 
L 221.402975 115.918515 
M 250.917025 85.990268 
L 234.520331 53.568 
M 96.788099 243.113567 
L 142.698843 290.499959 
M 103.346777 203.209237 
L 126.302149 188.245113 
M 103.346777 203.209237 
L 96.788099 243.113567 
M 119.743471 185.751093 
L 168.933554 143.352742 
M 119.743471 185.751093 
L 126.302149 188.245113 
M 119.743471 185.751093 
L 103.346777 203.209237 
M 270.593058 85.990268 
L 237.799669 118.412536 
M 270.593058 85.990268 
L 267.313719 133.37666 
M 270.593058 85.990268 
L 250.917025 85.990268 
M 106.626116 220.667381 
L 126.302149 188.245113 
M 106.626116 220.667381 
L 96.788099 243.113567 
M 106.626116 220.667381 
L 103.346777 203.209237 
M 195.168264 275.535835 
L 283.710413 268.053773 
M 195.168264 275.535835 
L 201.726942 290.499959 
M 195.168264 275.535835 
L 201.726942 245.607588 
M 195.168264 275.535835 
L 188.609587 263.065732 
M 195.168264 275.535835 
L 142.698843 290.499959 
M 375.531901 223.161402 
L 342.738512 255.58367 
M 375.531901 223.161402 
L 342.738512 233.137485 
M 375.531901 223.161402 
L 398.487273 223.161402 
M 375.531901 223.161402 
L 385.369917 178.269031 
M 155.816198 228.149443 
L 208.28562 158.316866 
M 155.816198 228.149443 
L 126.302149 188.245113 
M 155.816198 228.149443 
L 201.726942 245.607588 
M 155.816198 228.149443 
L 188.609587 263.065732 
M 155.816198 228.149443 
L 142.698843 290.499959 
M 155.816198 228.149443 
L 96.788099 243.113567 
M 155.816198 228.149443 
L 106.626116 220.667381 
M 372.252562 81.002227 
L 346.017851 105.942433 
M 372.252562 81.002227 
L 395.207934 145.846763 
M 372.252562 81.002227 
L 234.520331 53.568 
M 73.832727 168.292948 
L 73.832727 98.460371 
M 73.832727 168.292948 
L 168.933554 143.352742 
M 73.832727 168.292948 
L 100.067438 95.966351 
M 73.832727 168.292948 
L 96.788099 243.113567 
M 73.832727 168.292948 
L 103.346777 203.209237 
M 73.832727 168.292948 
L 119.743471 185.751093 
M 339.459174 288.005938 
L 283.710413 268.053773 
M 339.459174 288.005938 
L 342.738512 255.58367 
M 339.459174 288.005938 
L 372.252562 295.488 
M 382.090579 165.798928 
L 372.252562 138.364701 
M 382.090579 165.798928 
L 395.207934 145.846763 
M 382.090579 165.798928 
L 385.369917 178.269031 
M 388.649256 213.18532 
L 398.487273 223.161402 
M 388.649256 213.18532 
L 385.369917 178.269031 
M 388.649256 213.18532 
L 375.531901 223.161402 
M 293.54843 290.499959 
L 283.710413 268.053773 
M 293.54843 290.499959 
L 372.252562 295.488 
M 293.54843 290.499959 
L 201.726942 290.499959 
M 293.54843 290.499959 
L 339.459174 288.005938 
M 306.665785 85.990268 
L 336.179835 118.412536 
M 306.665785 85.990268 
L 346.017851 105.942433 
M 306.665785 85.990268 
L 267.313719 133.37666 
M 306.665785 85.990268 
L 270.593058 85.990268 
M 306.665785 85.990268 
L 372.252562 81.002227 
M 342.738512 125.894598 
L 372.252562 138.364701 
M 342.738512 125.894598 
L 336.179835 118.412536 
M 342.738512 125.894598 
L 346.017851 105.942433 
M 342.738512 125.894598 
L 267.313719 133.37666 
M 342.738512 125.894598 
L 382.090579 165.798928 
M 277.151736 78.508206 
L 234.520331 53.568 
M 277.151736 78.508206 
L 250.917025 85.990268 
M 277.151736 78.508206 
L 270.593058 85.990268 
M 277.151736 78.508206 
L 372.252562 81.002227 
M 277.151736 78.508206 
L 306.665785 85.990268 
M 372.252562 130.882639 
L 372.252562 138.364701 
M 372.252562 130.882639 
L 346.017851 105.942433 
M 372.252562 130.882639 
L 395.207934 145.846763 
M 372.252562 130.882639 
L 372.252562 81.002227 
M 372.252562 130.882639 
L 342.738512 125.894598 
M 237.799669 203.209237 
L 208.28562 158.316866 
M 237.799669 203.209237 
L 231.240992 160.810887 
M 237.799669 203.209237 
L 250.917025 150.834804 
M 237.799669 203.209237 
L 201.726942 245.607588 
M 237.799669 203.209237 
L 267.313719 213.18532 
M 237.799669 203.209237 
L 155.816198 228.149443 
M 172.212893 110.930474 
L 116.464132 93.47233 
M 172.212893 110.930474 
L 168.933554 143.352742 
M 172.212893 110.930474 
L 221.402975 115.918515 
M 172.212893 110.930474 
L 234.520331 53.568 
M 172.212893 110.930474 
L 250.917025 85.990268 
M 306.665785 193.233155 
L 250.917025 150.834804 
M 306.665785 193.233155 
L 342.738512 233.137485 
M 306.665785 193.233155 
L 267.313719 133.37666 
M 306.665785 193.233155 
L 267.313719 213.18532 
M 306.665785 193.233155 
L 385.369917 178.269031 
M 306.665785 193.233155 
L 375.531901 223.161402 
M 306.665785 193.233155 
L 382.090579 165.798928 
M 306.665785 193.233155 
L 342.738512 125.894598 
M 306.665785 193.233155 
L 237.799669 203.209237 
L 237.799669 203.209237 
" clip-path="url(#p0104047e62)" style="fill: none; stroke: #005c53; stroke-width: 1.5; stroke-linecap: square"/>
   </g>
   <g id="PathCollection_1">
    <defs>
     <path id="C0_0_e53633e98f" d="M 0 3 
C 0.795609 3 1.55874 2.683901 2.12132 2.12132 
C 2.683901 1.55874 3 0.795609 3 -0 
C 3 -0.795609 2.683901 -1.55874 2.12132 -2.12132 
C 1.55874 -2.683901 0.795609 -3 0 -3 
C -0.795609 -3 -1.55874 -2.683901 -2.12132 -2.12132 
C -2.683901 -1.55874 -3 -0.795609 -3 0 
C -3 0.795609 -2.683901 1.55874 -2.12132 2.12132 
C -1.55874 2.683901 -0.795609 3 0 3 
z
"/>
    </defs>
    <g clip-path="url(#p0104047e62)">
     <use xlink:href="#C0_0_e53633e98f" x="372.252562" y="138.364701" style="fill: #d6d58e; stroke: #d6d58e"/>
    </g>
    <g clip-path="url(#p0104047e62)">
     <use xlink:href="#C0_0_e53633e98f" x="208.28562" y="158.316866" style="fill: #d6d58e; stroke: #d6d58e"/>
    </g>
    <g clip-path="url(#p0104047e62)">
     <use xlink:href="#C0_0_e53633e98f" x="283.710413" y="268.053773" style="fill: #d6d58e; stroke: #d6d58e"/>
    </g>
    <g clip-path="url(#p0104047e62)">
     <use xlink:href="#C0_0_e53633e98f" x="342.738512" y="255.58367" style="fill: #d6d58e; stroke: #d6d58e"/>
    </g>
    <g clip-path="url(#p0104047e62)">
     <use xlink:href="#C0_0_e53633e98f" x="73.832727" y="98.460371" style="fill: #d6d58e; stroke: #d6d58e"/>
    </g>
    <g clip-path="url(#p0104047e62)">
     <use xlink:href="#C0_0_e53633e98f" x="116.464132" y="93.47233" style="fill: #d6d58e; stroke: #d6d58e"/>
    </g>
    <g clip-path="url(#p0104047e62)">
     <use xlink:href="#C0_0_e53633e98f" x="231.240992" y="160.810887" style="fill: #d6d58e; stroke: #d6d58e"/>
    </g>
    <g clip-path="url(#p0104047e62)">
     <use xlink:href="#C0_0_e53633e98f" x="250.917025" y="150.834804" style="fill: #d6d58e; stroke: #d6d58e"/>
    </g>
    <g clip-path="url(#p0104047e62)">
     <use xlink:href="#C0_0_e53633e98f" x="372.252562" y="295.488" style="fill: #d6d58e; stroke: #d6d58e"/>
    </g>
    <g clip-path="url(#p0104047e62)">
     <use xlink:href="#C0_0_e53633e98f" x="201.726942" y="290.499959" style="fill: #d6d58e; stroke: #d6d58e"/>
    </g>
    <g clip-path="url(#p0104047e62)">
     <use xlink:href="#C0_0_e53633e98f" x="342.738512" y="233.137485" style="fill: #d6d58e; stroke: #d6d58e"/>
    </g>
    <g clip-path="url(#p0104047e62)">
     <use xlink:href="#C0_0_e53633e98f" x="237.799669" y="118.412536" style="fill: #d6d58e; stroke: #d6d58e"/>
    </g>
    <g clip-path="url(#p0104047e62)">
     <use xlink:href="#C0_0_e53633e98f" x="398.487273" y="223.161402" style="fill: #d6d58e; stroke: #d6d58e"/>
    </g>
    <g clip-path="url(#p0104047e62)">
     <use xlink:href="#C0_0_e53633e98f" x="336.179835" y="118.412536" style="fill: #d6d58e; stroke: #d6d58e"/>
    </g>
    <g clip-path="url(#p0104047e62)">
     <use xlink:href="#C0_0_e53633e98f" x="168.933554" y="143.352742" style="fill: #d6d58e; stroke: #d6d58e"/>
    </g>
    <g clip-path="url(#p0104047e62)">
     <use xlink:href="#C0_0_e53633e98f" x="346.017851" y="105.942433" style="fill: #d6d58e; stroke: #d6d58e"/>
    </g>
    <g clip-path="url(#p0104047e62)">
     <use xlink:href="#C0_0_e53633e98f" x="221.402975" y="115.918515" style="fill: #d6d58e; stroke: #d6d58e"/>
    </g>
    <g clip-path="url(#p0104047e62)">
     <use xlink:href="#C0_0_e53633e98f" x="395.207934" y="145.846763" style="fill: #d6d58e; stroke: #d6d58e"/>
    </g>
    <g clip-path="url(#p0104047e62)">
     <use xlink:href="#C0_0_e53633e98f" x="267.313719" y="133.37666" style="fill: #d6d58e; stroke: #d6d58e"/>
    </g>
    <g clip-path="url(#p0104047e62)">
     <use xlink:href="#C0_0_e53633e98f" x="126.302149" y="188.245113" style="fill: #d6d58e; stroke: #d6d58e"/>
    </g>
    <g clip-path="url(#p0104047e62)">
     <use xlink:href="#C0_0_e53633e98f" x="100.067438" y="95.966351" style="fill: #d6d58e; stroke: #d6d58e"/>
    </g>
    <g clip-path="url(#p0104047e62)">
     <use xlink:href="#C0_0_e53633e98f" x="201.726942" y="245.607588" style="fill: #d6d58e; stroke: #d6d58e"/>
    </g>
    <g clip-path="url(#p0104047e62)">
     <use xlink:href="#C0_0_e53633e98f" x="188.609587" y="263.065732" style="fill: #d6d58e; stroke: #d6d58e"/>
    </g>
    <g clip-path="url(#p0104047e62)">
     <use xlink:href="#C0_0_e53633e98f" x="267.313719" y="213.18532" style="fill: #d6d58e; stroke: #d6d58e"/>
    </g>
    <g clip-path="url(#p0104047e62)">
     <use xlink:href="#C0_0_e53633e98f" x="234.520331" y="53.568" style="fill: #d6d58e; stroke: #d6d58e"/>
    </g>
    <g clip-path="url(#p0104047e62)">
     <use xlink:href="#C0_0_e53633e98f" x="142.698843" y="290.499959" style="fill: #d6d58e; stroke: #d6d58e"/>
    </g>
    <g clip-path="url(#p0104047e62)">
     <use xlink:href="#C0_0_e53633e98f" x="385.369917" y="178.269031" style="fill: #d6d58e; stroke: #d6d58e"/>
    </g>
    <g clip-path="url(#p0104047e62)">
     <use xlink:href="#C0_0_e53633e98f" x="250.917025" y="85.990268" style="fill: #d6d58e; stroke: #d6d58e"/>
    </g>
    <g clip-path="url(#p0104047e62)">
     <use xlink:href="#C0_0_e53633e98f" x="96.788099" y="243.113567" style="fill: #d6d58e; stroke: #d6d58e"/>
    </g>
    <g clip-path="url(#p0104047e62)">
     <use xlink:href="#C0_0_e53633e98f" x="103.346777" y="203.209237" style="fill: #d6d58e; stroke: #d6d58e"/>
    </g>
    <g clip-path="url(#p0104047e62)">
     <use xlink:href="#C0_0_e53633e98f" x="119.743471" y="185.751093" style="fill: #d6d58e; stroke: #d6d58e"/>
    </g>
    <g clip-path="url(#p0104047e62)">
     <use xlink:href="#C0_0_e53633e98f" x="270.593058" y="85.990268" style="fill: #d6d58e; stroke: #d6d58e"/>
    </g>
    <g clip-path="url(#p0104047e62)">
     <use xlink:href="#C0_0_e53633e98f" x="106.626116" y="220.667381" style="fill: #d6d58e; stroke: #d6d58e"/>
    </g>
    <g clip-path="url(#p0104047e62)">
     <use xlink:href="#C0_0_e53633e98f" x="208.28562" y="158.316866" style="fill: #d6d58e; stroke: #d6d58e"/>
    </g>
    <g clip-path="url(#p0104047e62)">
     <use xlink:href="#C0_0_e53633e98f" x="195.168264" y="275.535835" style="fill: #d6d58e; stroke: #d6d58e"/>
    </g>
    <g clip-path="url(#p0104047e62)">
     <use xlink:href="#C0_0_e53633e98f" x="375.531901" y="223.161402" style="fill: #d6d58e; stroke: #d6d58e"/>
    </g>
    <g clip-path="url(#p0104047e62)">
     <use xlink:href="#C0_0_e53633e98f" x="155.816198" y="228.149443" style="fill: #d6d58e; stroke: #d6d58e"/>
    </g>
    <g clip-path="url(#p0104047e62)">
     <use xlink:href="#C0_0_e53633e98f" x="372.252562" y="81.002227" style="fill: #d6d58e; stroke: #d6d58e"/>
    </g>
    <g clip-path="url(#p0104047e62)">
     <use xlink:href="#C0_0_e53633e98f" x="73.832727" y="168.292948" style="fill: #d6d58e; stroke: #d6d58e"/>
    </g>
    <g clip-path="url(#p0104047e62)">
     <use xlink:href="#C0_0_e53633e98f" x="339.459174" y="288.005938" style="fill: #d6d58e; stroke: #d6d58e"/>
    </g>
    <g clip-path="url(#p0104047e62)">
     <use xlink:href="#C0_0_e53633e98f" x="382.090579" y="165.798928" style="fill: #d6d58e; stroke: #d6d58e"/>
    </g>
    <g clip-path="url(#p0104047e62)">
     <use xlink:href="#C0_0_e53633e98f" x="388.649256" y="213.18532" style="fill: #d6d58e; stroke: #d6d58e"/>
    </g>
    <g clip-path="url(#p0104047e62)">
     <use xlink:href="#C0_0_e53633e98f" x="293.54843" y="290.499959" style="fill: #d6d58e; stroke: #d6d58e"/>
    </g>
    <g clip-path="url(#p0104047e62)">
     <use xlink:href="#C0_0_e53633e98f" x="306.665785" y="85.990268" style="fill: #d6d58e; stroke: #d6d58e"/>
    </g>
    <g clip-path="url(#p0104047e62)">
     <use xlink:href="#C0_0_e53633e98f" x="342.738512" y="125.894598" style="fill: #d6d58e; stroke: #d6d58e"/>
    </g>
    <g clip-path="url(#p0104047e62)">
     <use xlink:href="#C0_0_e53633e98f" x="277.151736" y="78.508206" style="fill: #d6d58e; stroke: #d6d58e"/>
    </g>
    <g clip-path="url(#p0104047e62)">
     <use xlink:href="#C0_0_e53633e98f" x="372.252562" y="130.882639" style="fill: #d6d58e; stroke: #d6d58e"/>
    </g>
    <g clip-path="url(#p0104047e62)">
     <use xlink:href="#C0_0_e53633e98f" x="237.799669" y="203.209237" style="fill: #d6d58e; stroke: #d6d58e"/>
    </g>
    <g clip-path="url(#p0104047e62)">
     <use xlink:href="#C0_0_e53633e98f" x="172.212893" y="110.930474" style="fill: #d6d58e; stroke: #d6d58e"/>
    </g>
    <g clip-path="url(#p0104047e62)">
     <use xlink:href="#C0_0_e53633e98f" x="306.665785" y="193.233155" style="fill: #d6d58e; stroke: #d6d58e"/>
    </g>
   </g>
   <g id="matplotlib.axis_1">
    <g id="xtick_1">
     <g id="line2d_2">
      <defs>
       <path id="m8d7ad0425a" d="M 0 0 
L 0 3.5 
" style="stroke: #000000; stroke-width: 0.8"/>
      </defs>
      <g>
       <use xlink:href="#m8d7ad0425a" x="70.553388" y="307.584" style="stroke: #000000; stroke-width: 0.8"/>
      </g>
     </g>
     <g id="text_1">
      <!-- 0 -->
      <g transform="translate(67.372138 322.182437) scale(0.1 -0.1)">
       <defs>
        <path id="DejaVuSans-30" d="M 2034 4250 
Q 1547 4250 1301 3770 
Q 1056 3291 1056 2328 
Q 1056 1369 1301 889 
Q 1547 409 2034 409 
Q 2525 409 2770 889 
Q 3016 1369 3016 2328 
Q 3016 3291 2770 3770 
Q 2525 4250 2034 4250 
z
M 2034 4750 
Q 2819 4750 3233 4129 
Q 3647 3509 3647 2328 
Q 3647 1150 3233 529 
Q 2819 -91 2034 -91 
Q 1250 -91 836 529 
Q 422 1150 422 2328 
Q 422 3509 836 4129 
Q 1250 4750 2034 4750 
z
" transform="scale(0.015625)"/>
       </defs>
       <use xlink:href="#DejaVuSans-30"/>
      </g>
     </g>
    </g>
    <g id="xtick_2">
     <g id="line2d_3">
      <g>
       <use xlink:href="#m8d7ad0425a" x="136.140165" y="307.584" style="stroke: #000000; stroke-width: 0.8"/>
      </g>
     </g>
     <g id="text_2">
      <!-- 20 -->
      <g transform="translate(129.777665 322.182437) scale(0.1 -0.1)">
       <defs>
        <path id="DejaVuSans-32" d="M 1228 531 
L 3431 531 
L 3431 0 
L 469 0 
L 469 531 
Q 828 903 1448 1529 
Q 2069 2156 2228 2338 
Q 2531 2678 2651 2914 
Q 2772 3150 2772 3378 
Q 2772 3750 2511 3984 
Q 2250 4219 1831 4219 
Q 1534 4219 1204 4116 
Q 875 4013 500 3803 
L 500 4441 
Q 881 4594 1212 4672 
Q 1544 4750 1819 4750 
Q 2544 4750 2975 4387 
Q 3406 4025 3406 3419 
Q 3406 3131 3298 2873 
Q 3191 2616 2906 2266 
Q 2828 2175 2409 1742 
Q 1991 1309 1228 531 
z
" transform="scale(0.015625)"/>
       </defs>
       <use xlink:href="#DejaVuSans-32"/>
       <use xlink:href="#DejaVuSans-30" x="63.623047"/>
      </g>
     </g>
    </g>
    <g id="xtick_3">
     <g id="line2d_4">
      <g>
       <use xlink:href="#m8d7ad0425a" x="201.726942" y="307.584" style="stroke: #000000; stroke-width: 0.8"/>
      </g>
     </g>
     <g id="text_3">
      <!-- 40 -->
      <g transform="translate(195.364442 322.182437) scale(0.1 -0.1)">
       <defs>
        <path id="DejaVuSans-34" d="M 2419 4116 
L 825 1625 
L 2419 1625 
L 2419 4116 
z
M 2253 4666 
L 3047 4666 
L 3047 1625 
L 3713 1625 
L 3713 1100 
L 3047 1100 
L 3047 0 
L 2419 0 
L 2419 1100 
L 313 1100 
L 313 1709 
L 2253 4666 
z
" transform="scale(0.015625)"/>
       </defs>
       <use xlink:href="#DejaVuSans-34"/>
       <use xlink:href="#DejaVuSans-30" x="63.623047"/>
      </g>
     </g>
    </g>
    <g id="xtick_4">
     <g id="line2d_5">
      <g>
       <use xlink:href="#m8d7ad0425a" x="267.313719" y="307.584" style="stroke: #000000; stroke-width: 0.8"/>
      </g>
     </g>
     <g id="text_4">
      <!-- 60 -->
      <g transform="translate(260.951219 322.182437) scale(0.1 -0.1)">
       <defs>
        <path id="DejaVuSans-36" d="M 2113 2584 
Q 1688 2584 1439 2293 
Q 1191 2003 1191 1497 
Q 1191 994 1439 701 
Q 1688 409 2113 409 
Q 2538 409 2786 701 
Q 3034 994 3034 1497 
Q 3034 2003 2786 2293 
Q 2538 2584 2113 2584 
z
M 3366 4563 
L 3366 3988 
Q 3128 4100 2886 4159 
Q 2644 4219 2406 4219 
Q 1781 4219 1451 3797 
Q 1122 3375 1075 2522 
Q 1259 2794 1537 2939 
Q 1816 3084 2150 3084 
Q 2853 3084 3261 2657 
Q 3669 2231 3669 1497 
Q 3669 778 3244 343 
Q 2819 -91 2113 -91 
Q 1303 -91 875 529 
Q 447 1150 447 2328 
Q 447 3434 972 4092 
Q 1497 4750 2381 4750 
Q 2619 4750 2861 4703 
Q 3103 4656 3366 4563 
z
" transform="scale(0.015625)"/>
       </defs>
       <use xlink:href="#DejaVuSans-36"/>
       <use xlink:href="#DejaVuSans-30" x="63.623047"/>
      </g>
     </g>
    </g>
    <g id="xtick_5">
     <g id="line2d_6">
      <g>
       <use xlink:href="#m8d7ad0425a" x="332.900496" y="307.584" style="stroke: #000000; stroke-width: 0.8"/>
      </g>
     </g>
     <g id="text_5">
      <!-- 80 -->
      <g transform="translate(326.537996 322.182437) scale(0.1 -0.1)">
       <defs>
        <path id="DejaVuSans-38" d="M 2034 2216 
Q 1584 2216 1326 1975 
Q 1069 1734 1069 1313 
Q 1069 891 1326 650 
Q 1584 409 2034 409 
Q 2484 409 2743 651 
Q 3003 894 3003 1313 
Q 3003 1734 2745 1975 
Q 2488 2216 2034 2216 
z
M 1403 2484 
Q 997 2584 770 2862 
Q 544 3141 544 3541 
Q 544 4100 942 4425 
Q 1341 4750 2034 4750 
Q 2731 4750 3128 4425 
Q 3525 4100 3525 3541 
Q 3525 3141 3298 2862 
Q 3072 2584 2669 2484 
Q 3125 2378 3379 2068 
Q 3634 1759 3634 1313 
Q 3634 634 3220 271 
Q 2806 -91 2034 -91 
Q 1263 -91 848 271 
Q 434 634 434 1313 
Q 434 1759 690 2068 
Q 947 2378 1403 2484 
z
M 1172 3481 
Q 1172 3119 1398 2916 
Q 1625 2713 2034 2713 
Q 2441 2713 2670 2916 
Q 2900 3119 2900 3481 
Q 2900 3844 2670 4047 
Q 2441 4250 2034 4250 
Q 1625 4250 1398 4047 
Q 1172 3844 1172 3481 
z
" transform="scale(0.015625)"/>
       </defs>
       <use xlink:href="#DejaVuSans-38"/>
       <use xlink:href="#DejaVuSans-30" x="63.623047"/>
      </g>
     </g>
    </g>
    <g id="xtick_6">
     <g id="line2d_7">
      <g>
       <use xlink:href="#m8d7ad0425a" x="398.487273" y="307.584" style="stroke: #000000; stroke-width: 0.8"/>
      </g>
     </g>
     <g id="text_6">
      <!-- 100 -->
      <g transform="translate(388.943523 322.182437) scale(0.1 -0.1)">
       <defs>
        <path id="DejaVuSans-31" d="M 794 531 
L 1825 531 
L 1825 4091 
L 703 3866 
L 703 4441 
L 1819 4666 
L 2450 4666 
L 2450 531 
L 3481 531 
L 3481 0 
L 794 0 
L 794 531 
z
" transform="scale(0.015625)"/>
       </defs>
       <use xlink:href="#DejaVuSans-31"/>
       <use xlink:href="#DejaVuSans-30" x="63.623047"/>
       <use xlink:href="#DejaVuSans-30" x="127.246094"/>
      </g>
     </g>
    </g>
   </g>
   <g id="matplotlib.axis_2">
    <g id="ytick_1">
     <g id="line2d_8">
      <defs>
       <path id="m6e0b80214a" d="M 0 0 
L -3.5 0 
" style="stroke: #000000; stroke-width: 0.8"/>
      </defs>
      <g>
       <use xlink:href="#m6e0b80214a" x="57.6" y="295.488" style="stroke: #000000; stroke-width: 0.8"/>
      </g>
     </g>
     <g id="text_7">
      <!-- 0 -->
      <g transform="translate(44.2375 299.287219) scale(0.1 -0.1)">
       <use xlink:href="#DejaVuSans-30"/>
      </g>
     </g>
    </g>
    <g id="ytick_2">
     <g id="line2d_9">
      <g>
       <use xlink:href="#m6e0b80214a" x="57.6" y="245.607588" style="stroke: #000000; stroke-width: 0.8"/>
      </g>
     </g>
     <g id="text_8">
      <!-- 20 -->
      <g transform="translate(37.875 249.406806) scale(0.1 -0.1)">
       <use xlink:href="#DejaVuSans-32"/>
       <use xlink:href="#DejaVuSans-30" x="63.623047"/>
      </g>
     </g>
    </g>
    <g id="ytick_3">
     <g id="line2d_10">
      <g>
       <use xlink:href="#m6e0b80214a" x="57.6" y="195.727175" style="stroke: #000000; stroke-width: 0.8"/>
      </g>
     </g>
     <g id="text_9">
      <!-- 40 -->
      <g transform="translate(37.875 199.526394) scale(0.1 -0.1)">
       <use xlink:href="#DejaVuSans-34"/>
       <use xlink:href="#DejaVuSans-30" x="63.623047"/>
      </g>
     </g>
    </g>
    <g id="ytick_4">
     <g id="line2d_11">
      <g>
       <use xlink:href="#m6e0b80214a" x="57.6" y="145.846763" style="stroke: #000000; stroke-width: 0.8"/>
      </g>
     </g>
     <g id="text_10">
      <!-- 60 -->
      <g transform="translate(37.875 149.645982) scale(0.1 -0.1)">
       <use xlink:href="#DejaVuSans-36"/>
       <use xlink:href="#DejaVuSans-30" x="63.623047"/>
      </g>
     </g>
    </g>
    <g id="ytick_5">
     <g id="line2d_12">
      <g>
       <use xlink:href="#m6e0b80214a" x="57.6" y="95.966351" style="stroke: #000000; stroke-width: 0.8"/>
      </g>
     </g>
     <g id="text_11">
      <!-- 80 -->
      <g transform="translate(37.875 99.765569) scale(0.1 -0.1)">
       <use xlink:href="#DejaVuSans-38"/>
       <use xlink:href="#DejaVuSans-30" x="63.623047"/>
      </g>
     </g>
    </g>
    <g id="ytick_6">
     <g id="line2d_13">
      <g>
       <use xlink:href="#m6e0b80214a" x="57.6" y="46.085938" style="stroke: #000000; stroke-width: 0.8"/>
      </g>
     </g>
     <g id="text_12">
      <!-- 100 -->
      <g transform="translate(31.5125 49.885157) scale(0.1 -0.1)">
       <use xlink:href="#DejaVuSans-31"/>
       <use xlink:href="#DejaVuSans-30" x="63.623047"/>
       <use xlink:href="#DejaVuSans-30" x="127.246094"/>
      </g>
     </g>
    </g>
   </g>
   <g id="line2d_14"/>
   <g id="patch_3">
    <path d="M 57.6 307.584 
L 57.6 41.472 
" style="fill: none; stroke: #000000; stroke-width: 0.8; stroke-linejoin: miter; stroke-linecap: square"/>
   </g>
   <g id="patch_4">
    <path d="M 414.72 307.584 
L 414.72 41.472 
" style="fill: none; stroke: #000000; stroke-width: 0.8; stroke-linejoin: miter; stroke-linecap: square"/>
   </g>
   <g id="patch_5">
    <path d="M 57.6 307.584 
L 414.72 307.584 
" style="fill: none; stroke: #000000; stroke-width: 0.8; stroke-linejoin: miter; stroke-linecap: square"/>
   </g>
   <g id="patch_6">
    <path d="M 57.6 41.472 
L 414.72 41.472 
" style="fill: none; stroke: #000000; stroke-width: 0.8; stroke-linejoin: miter; stroke-linecap: square"/>
   </g>
  </g>
 </g>
 <defs>
  <clipPath id="p0104047e62">
   <rect x="57.6" y="41.472" width="357.12" height="266.112"/>
  </clipPath>
 </defs>
</svg>
